<svg id="Layer_1" enable-background="new 0 0 510 510" height="512" viewBox="0 0 510 510" width="512" xmlns="http://www.w3.org/2000/svg"><g><path d="m417.36 20.13-60.87 167.25c-2.21 6.05-7.93 9.87-14.1 9.87-2.867 0 3.857 1.599-87.36-23.28-1.443.481 9.6-2.743-82.93 23.71-7.312 2.135-15.454-1.707-18.22-9.29l-61.24-168.26c-3.561-9.809 3.733-20.13 14.1-20.13h93.65c6.31 0 11.94 3.94 14.1 9.87l40.51 111.29 40.51-111.29c2.16-5.93 7.79-9.87 14.1-9.87h93.65c10.389 0 17.652 10.346 14.1 20.13z" fill="#4a696f"/><path d="m417.36 20.13-60.87 167.25c-2.21 6.05-7.93 9.87-14.1 9.87-2.867 0 3.857 1.599-87.36-23.28-.1.033-.03 2.372-.03-52.81l40.51-111.29c2.16-5.93 7.79-9.87 14.1-9.87h93.65c10.389 0 17.652 10.346 14.1 20.13z" fill="#384949"/><path d="m438 327c0 100.91-82.09 183-183 183s-183-82.09-183-183c0-102.028 83.509-184.287 185.35-182.98 59.449.641 90.257 25.4 92.82 25.4 55.872 33.878 87.83 98.602 87.83 157.58z" fill="#fed843"/><path d="m255 510v-365.83c.557.557 107.038-8.086 161.44 97.28 65.456 126.766-27.278 268.55-161.44 268.55z" fill="#fabe2c"/><path d="m359.51 309.32-50.41 37.13 19.28 60.14c4.451 13.843-11.589 25.214-23.17 16.66l-50.21-36.97-50.21 36.97c-11.652 8.6-27.614-2.838-23.17-16.66l19.28-60.14-50.41-37.13c-11.631-8.556-5.554-27.08 8.89-27.08h62.11l19.23-59.99c4.434-13.837 24.116-13.869 28.56 0l19.23 59.99h62.11c14.44 0 20.524 18.522 8.89 27.08z" fill="#fabe2c"/><path d="m359.51 309.32-50.41 37.13 19.28 60.14c4.451 13.843-11.589 25.214-23.17 16.66l-50.21-36.97v-174.45c6.52 0 12.29 4.21 14.28 10.42l19.23 59.99h62.11c14.44 0 20.524 18.522 8.89 27.08z" fill="#ff9100"/></g></svg>